<?xml version="1.0" encoding="UTF-8"?>
<svg width="54px" height="54px" viewBox="0 0 54 54" version="1.1" xmlns="http://www.w3.org/2000/svg" xmlns:xlink="http://www.w3.org/1999/xlink">
    <title>Global/Atoms/Controls/Close</title>
    <g id="💻-Tablet" stroke="none" stroke-width="1" fill="none" fill-rule="evenodd">
        <g id="bumper_tablet-copy" transform="translate(-668.000000, -34.000000)">
            <g id="Global/Atoms/Controls/Close" transform="translate(668.000000, 34.000000)">
                <rect id="Diamond" fill="#AA8855" transform="translate(27.125284, 27.125284) rotate(-225.000000) translate(-27.125284, -27.125284) " x="8.2555213" y="8.2555213" width="37.7395259" height="37.7395259"></rect>
                <g id="Icon" transform="translate(17.000000, 17.000000)" fill="#FCF5E7">
                    <polygon points="17.4100334 0 20 2.5984252 19.1105165 3.49081365 18.4629121 2.84098245 11.3269476 10 18.4629121 17.1590176 19.1105165 16.5091864 20 17.4015748 17.4100334 20 16.52055 19.1076115 17.1680412 18.4581175 10.0320821 11.2980906 10.012932 11.3188976 10 11.305 9.987068 11.3188976 9.96791795 11.2980906 2.83195883 18.4581175 3.47945002 19.1076115 2.58996656 20 0 17.4015748 0.889483463 16.5091864 1.53708787 17.1590176 8.6730524 10 1.53708787 2.84098245 0.889483463 3.49081365 0 2.5984252 2.58996656 0 3.47945002 0.892388451 2.83195883 1.54188253 9.96791795 8.70090551 9.987068 8.68110236 10 8.694 10.012932 8.68110236 10.0320821 8.70090551 17.1680412 1.54188253 16.52055 0.892388451"></polygon>
                </g>
            </g>
        </g>
    </g>
</svg>